<svg xmlns='http://www.w3.org/2000/svg' width='400' height='400'>
      <defs><style>.cls-path-cs3-male-9R{clip-path:url(#clip-path-cs3-male-9R)}.cls-path-cs3-male-9L{clip-path:url(#clip-path-cs3-male-9L)}.cls-multipy{mix-blend-mode: multiply;}.cls-softlight{mix-blend-mode: soft-light;}.cls-overlay{mix-blend-mode: overlay;}.cls-colorburn{mix-blend-mode: color-burn;}.cls-screen{mix-blend-mode: screen;}.cls-lighten{ mix-blend-mode: darken;}</style>
      </defs><path fill="#f9a37a" d="M393.17,400H6.83s4.5-20,5.25-24.64S136.62,325.91,139,324c1.47-1.21,3.35-27.08,4.52-45.79.67-10.75,1.12-19.13,1.12-19.13H255.42s1.41,27,3.05,46.2c.85,10.12,1.78,18.06,2.58,18.72,2.33,1.91,126.12,46.68,126.87,51.36S393.17,400,393.17,400Z" class="canChange" style="fill:null"></path><path fill="#d177b8" opacity="0.44" d="M258.47,305.28c-5.58.62-14.35,2.15-20.11,5.88-9.05,5.85-20.63,31.31-38.47,30.54s-40.48-48.61-44-55c-2.07-3.73-7.91-6.7-12.41-8.51.67-10.75,1.12-19.13,1.12-19.13H255.42S256.83,286.09,258.47,305.28Z" class="cls-multipy"></path><path fill="#f9a37a" d="M280.58,163.11s12.05-18.35,20.22-18.31c5,0,17,10.47,16.84,20.44-.18,13.35-12,28.5-14.94,36.28s-10.56,17.92-15.63,18.9-11.67-8.62-11.67-8.62S277.86,175.21,280.58,163.11Z" class="canChange" style="fill:null"></path><path fill="#d177b8" opacity="0.44" d="M281.47,182.64s19.78-24.43,27-24.43,7.19,13.9,4.29,21.83c-2,5.49-5.93,13.43-5.93,13.43s3.1-8.53,3.48-14.9c.57-9.81-1.61-16.94-4.09-16.93-4.55,0-8.14,6.26-8.71,8.47s3.6,11.89,2.49,18.64-5.15,9.32-6.5,8.58.74-8.34-.49-11-4.78-6.62-6.86-5.76S281.47,182.64,281.47,182.64Z" class="cls-multipy"></path><path fill="#d177b8" opacity="0.44" d="M281.47,182.64s4.88-2.91,6.36-2,5.25,4.32,5.4,6.45-1.19,8.19,0,9.24,5.5-5.78,5.69-11.81-3.19-13-3.19-13.82.79-4.69.79-4.69S285,176.91,281.47,182.64Z" class="cls-multipy"></path><path fill="#f9a37a" d="M119.42,163.11s-12-18.35-20.22-18.31c-5,0-17,10.47-16.84,20.44.18,13.35,12,28.5,14.94,36.28s10.56,17.92,15.63,18.9,11.67-8.62,11.67-8.62S122.14,175.21,119.42,163.11Z" class="canChange" style="fill:null"></path><path fill="#d177b8" opacity="0.44" d="M118.53,182.64s-19.78-24.43-27-24.43-7.19,13.9-4.29,21.83c2,5.49,5.93,13.43,5.93,13.43s-3.1-8.53-3.48-14.9c-.57-9.81,1.61-16.94,4.09-16.93,4.55,0,8.14,6.26,8.71,8.47S98.91,182,100,188.75s5.15,9.32,6.5,8.58-.74-8.34.49-11,4.78-6.62,6.86-5.76S118.53,182.64,118.53,182.64Z" class="cls-multipy"></path><path fill="#d177b8" opacity="0.44" d="M118.53,182.64s-4.88-2.91-6.36-2-5.25,4.32-5.4,6.45,1.19,8.19,0,9.24-5.5-5.78-5.69-11.81,3.19-13,3.19-13.82-.79-4.69-.79-4.69S115,176.91,118.53,182.64Z" class="cls-multipy"></path><path fill="#f9b290" d="M289.82,190.22c-4.67,5.7-7.86,10-9.42,13.37-.38,3.54-.67,7.15-.83,10.86-.65,15-1.91,27.28-4.25,32.87a29.41,29.41,0,0,1-5.28,7.77h0c-6.68,7.52-17.3,15.43-24.5,22.85-.66.69-1.34,1.34-2,2l-.7.67a70.58,70.58,0,0,1-5.5,4.53l0,0a61.3,61.3,0,0,1-12.36,7.28c-6.86,2.82-24.65,2.82-24.65,2.82s-17.78,0-24.64-2.82A67.13,67.13,0,0,1,155,278c-8.51-8.77-21.76-18.2-27.69-26.88a21,21,0,0,1-2.11-3.75c-.22-.52-.43-1.1-.63-1.73h0c-2.4-5.86-3.2-20.18-3.56-29.64q0-.44,0-.84l0-.65c-.07-1.65-.17-3.29-.29-4.9-.1-1.38-.22-2.74-.35-4.1-1.12-3.67-4.58-8.43-10.14-15.23-6.19-7.55,4-28.18,5.29-30.68h0c-.83-18.56-1.25-49,.7-63.71a31.72,31.72,0,0,1,1.35-6.39c4.26-11.44,54.61-42.19,82.74-42.19,19.75,0,50.45,15.15,68.46,28.14l.93.68h0c7.15,5.26,12.12,10.1,13.34,13.37,3.5,9.43,3,49.28,2,71.11C287.4,165.43,295.48,183.31,289.82,190.22Z" class="canChange" style="fill:null"></path><path fill="#d177b8" opacity="0.4" d="M289.82,190.22c-4.67,5.7-7.86,10-9.42,13.37-.38,3.54-.67,7.15-.83,10.86-.65,15-1.91,27.28-4.25,32.87a29.41,29.41,0,0,1-5.28,7.77h0c-6.68,7.52-17.3,15.43-24.5,22.85-.66.69-1.34,1.34-2,2,4.71-4.61,11.07-11.2,13.38-15.41,3.86-7-3.72-45.6-.38-58.08s20-27.94,20-27.94c-1-7.12-7.07-7.12-7.07-7.12-19,10.37-46.74,1.78-46.74,1.78-3.32-15.75-2.16-43-2.16-43l.75-5.34,51.48-2.53s-4.58-11-4.17-17.66c.41-6.41,2.65-22.95,1.08-28.51,7.15,5.26,12.12,10.1,13.34,13.37,3.5,9.43,3,49.28,2,71.11C287.4,165.43,295.48,183.31,289.82,190.22Z" class="cls-multipy"></path><path fill="#d177b8" opacity="0.4" d="M125.47,178.48s14.66,16.66,18,29.14-2.25,49.85,1.6,56.88c3.71,6.73,17.75,19.57,18.88,20.61a68.49,68.49,0,0,1-8.21-7.16C146,267.9,130,257,125.94,247.32c-2.34-5.59-3.6-17.83-4.24-32.87a15.39,15.39,0,0,0-1-4.9c-.1-1.38-.22-2.74-.35-4.1-1.12-3.67-4.58-8.43-10.14-15.23-6.19-7.55,4-28.18,5.29-30.68h0c-.83-18.56-1.25-49,.7-63.71.86-2.8,1.58-5,2.1-6.39,1.26-3.41,6.62-8.53,14.27-14.05-2,4.73.42,22.49.85,29.19s-4.17,17.66-4.17,17.66l51.48,2.53.75,5.34s1.15,27.29-2.16,43c0,0-27.73,8.59-46.75-1.78C132.54,171.36,126.44,171.36,125.47,178.48Z" class="cls-multipy"></path><path fill="#d177b8" opacity="0.6" d="M270.73,255.1c-6.68,7.52-17.31,15.43-24.5,22.84A67.61,67.61,0,0,1,238,285.1s0,0,0,0a61.11,61.11,0,0,1-12.36,7.27c-6.86,2.83-24.65,2.83-24.65,2.83s-17.78,0-24.65-2.83a66.76,66.76,0,0,1-20.6-14.46c-8.51-8.76-21.76-18.2-27.69-26.87,0,0,9.61,8.95,19.82,17.42S175,293.1,201,293.1s45.49-19.28,49.54-22.24S270.2,255.51,270.73,255.1Z" class="cls-multipy"></path><path fill="#6e365b" d="M287.22,64.42c-.06-.19-.14-.36-.21-.55s-.3-.67-.43-1-.22-.54-.33-.78a5.22,5.22,0,0,0-.24-.54v0a.15.15,0,0,0,0-.09l-.06-.1c-1.85-3.88-3.73-6.61-5.44-7.64-7.13-4.24-28-2.6-28-2.6s22.32-10.39,38.76-6.61c0,0-9.87-6.9-19.82-5.83-8.29.9-17.42,9.81-27.45,11.47a17.91,17.91,0,0,1-6,0l0,0A14,14,0,0,1,234,48.63C225,44,210,30.48,200.4,30.63c-11.23.19-26.15,8-52.19,15.68a52.18,52.18,0,0,0-20,10.82v0a0,0,0,0,0,0,0,.05.05,0,0,0-.05,0l0,0s-.08.06-.14.11c-12.82,11.33-19.89,29-22.79,50.41-1.49,11,.37,23.06,3.38,34.07a181.52,181.52,0,0,0,13.21,33.53c.74,1.46,1.23,2.32,1.3,2.47,0-.2-.27-1.55-.6-3.62-1.09-6.9-3.18-22-2.08-31.08a24.66,24.66,0,0,1,2.82-8.52s0,0,0,0,0-.06,0-.1c4.51-8.35,13.19-16,20.92-25.07,3.29-3.83,7.68-8.91,12.94-14.11,16.11-2.45,63.18-11,86.45-31a45.31,45.31,0,0,1,18.6,16.16c7.36,11.51,9.38,37.87,12.51,55.32s4,29.36,4,29.36,12.76-22.18,15.95-47.91C296.93,99.17,292.52,77.35,287.22,64.42ZM200.4,70.86s0,0,0,0a336.93,336.93,0,0,1-29.73,16.24c-3,1.44-6.08,2.82-9.11,4.07C172.21,81.42,185.69,72.23,200.4,70.86Z" class="canChange" style="fill:null"></path><path fill="#d177b8" opacity="0.6" d="M128.24,57.17l-.07.07,0,0A.05.05,0,0,1,128.24,57.17Z" class="cls-multipy"></path><path fill="#d177b8" opacity="0.6" d="M127,86.63c-7.56,22.12-3.69,48-3.69,48a24.66,24.66,0,0,0-2.82,8.52c-1.1,9.05,1,24.18,2.08,31.08l-.7,1.15a181.52,181.52,0,0,1-13.21-33.53c-.6-7.18-1-15.12-1.18-23.7-.68-39,18.26-58.52,20.59-60.78.06-.05.12-.11.14-.11-1,1.16-8.94,10.95-11.7,27.64-3,17.78,0,38.22,0,38.22.76-24.58,11.29-44.17,18.65-54.93A100.28,100.28,0,0,0,127,86.63Z" class="cls-multipy"></path><path fill="#d177b8" opacity="0.6" d="M286,61.54a1.55,1.55,0,0,0-.1-.19l.06.1A.15.15,0,0,1,286,61.54Z" class="cls-multipy"></path><path fill="#d177b8" opacity="0.6" d="M286.25,62.1l.34.79C286.47,62.63,286.36,62.35,286.25,62.1Z" class="cls-multipy"></path><path fill="#d177b8" opacity="0.6" d="M294.68,117.2c-3.19,25.73-15.95,47.91-15.95,47.91s-.86-11.92-4-29.36-5.15-43.81-12.51-55.32a45.31,45.31,0,0,0-18.6-16.16c-23.27,20-70.34,28.58-86.45,31-5.26,5.2-9.65,10.28-12.94,14.11-7.73,9-16.41,16.72-20.92,25.07,1-2.63,18.22-45.64,43.19-59.36C192.3,61,219,47.15,219,47.15s-16.75-1.76-28.89.54-29.45,12.22-41.87,23.17c-10.86,9.55-18.51,33.19-20.32,39,2-7.15,12.15-40.75,24.46-47.87,13.82-8,49.21-33.68,60.36-25.18A98.58,98.58,0,0,0,234,48.63c2.21.91,3.69,1.42,3.94,1.51l0,0,6,0s-.87,4.63-4.74,6S200.4,70.86,200.4,70.86c-14.71,1.37-28.19,10.56-38.88,20.33,3-1.25,6.1-2.63,9.11-4.07C168,88.86,166.34,90,166.34,90s27.24-2,43.25-8.32,33.14-22.12,33.14-22.12S258,64,264.43,75.12s19,60.54,19,60.54,6.26-48.5-9.56-66c-8.56-9.48-23.56-14.07-25.56-14.48,2.35.28,23.45,3.21,29.24,14.12,6.13,11.57,13.73,56.88,13.73,56.88A108.2,108.2,0,0,0,287,63.87C292.41,76.73,297,98.91,294.68,117.2Z" class="cls-multipy"></path><path fill="#d177b8" opacity="0.6" d="M127.18,125.64s8.79-25.2,18.55-40.95,22.08-21.8,22.08-21.8S142.69,89.94,127.18,125.64Z" class="cls-multipy"></path><path fill="#ffd9bb" d="M261.07,68.46a88.66,88.66,0,0,1,7.73,14s2-5.64,6.38-7a48.55,48.55,0,0,0-5.82-10S264.75,67.4,261.07,68.46Z" class="cls-softlight"></path><path fill="#ffd9bb" d="M271.13,61.35a22,22,0,0,1,8.22,10s4.38-6,5-8.86-4-8.19-4-8.19S274.81,51.88,271.13,61.35Z" class="cls-softlight"></path><path fill="#ffd9bb" d="M167.81,74a81.15,81.15,0,0,0,5.77-8.49c1.35-2.72-5.77-7.33-5.77-7.33l8-4.17s5.31,4,5.17,7.33S185.48,64,185.48,64Z" class="cls-softlight"></path><path fill="#ffd9bb" d="M166.25,53.41s-4.94-3.6-8.25-4.66-1.71-4.92-1.71-4.92l4.78-1.57a12.77,12.77,0,0,0,4,5.57c2.95,2.22,10.29,0,10.29,0Z" class="cls-softlight"></path><path fill="#ffd9bb" d="M185.48,81a43.34,43.34,0,0,0,18.16,1.47c9.69-1.41,13.87-5.78,13.87-5.78s-13.78-.19-17.58-2.71Z" class="cls-softlight"></path><path d="M221.6,135.23s38.21-16.28,56-6.94c0,0-7.81-15.2-29.73-11.94s-28.22,13-28.22,13Z" class="canChange" style="fill:null"></path><path d="M178.4,136.53s-38.21-16.27-56-6.94c0,0,7.81-15.2,29.73-11.94s28.22,13,28.22,13Z" class="canChange" style="fill:null"></path><path fill="#e4e5f9" d="M221.67,171.06c.18,5.24,15.79,8.67,29,6.65,12.81-2,19.61-10.65,18.82-21.42s-10-17.1-23.9-14C230.39,145.61,221.24,158.64,221.67,171.06Z"></path><path fill="#dda6ae" d="M222.1,165.51s-.36,5.87,3.12,9.53c0,0-4-.88-4.39-3.45S222.1,165.51,222.1,165.51Z"></path><ellipse fill="#6a518a" cx="242.84" cy="160.97" rx="13.61" ry="13.66" transform="translate(-21.16 284.21) rotate(-58.56)"></ellipse><ellipse fill="#76719d" cx="242.84" cy="160.97" rx="12.81" ry="12.86" transform="translate(-21.07 284.4) rotate(-58.6)"></ellipse><ellipse fill="#724a60" cx="242.84" cy="160.97" rx="8.31" ry="8.34" transform="translate(-21.17 284.2) rotate(-58.56)" class="cls-multipy canChange" style="fill:null"></ellipse><path fill="#fff" d="M253,158.81c-.87.77,3.19,1,6.22-.23,2.71-1.07,4-2.81,3.76-3.12S256.49,155.74,253,158.81Z"></path><path fill="#fff" d="M250.72,159.58c-1.15-.39-2.49.2-2.55.81s1.38,1.38,2,1.13S251.36,159.8,250.72,159.58Z"></path><path fill="#d177b8" opacity="0.6" d="M222.82,162.62s18.64-21.53,46.54-7.78L269,153s-1.43-8.08-21-8.08S222.82,162.62,222.82,162.62Z" class="cls-multipy"></path><path fill="#0b0000" d="M223.84,159.85s6.78-11.32,22.69-12.5S269,153,269,153s4.84-2.61,4.18-3.67S240.84,123,223.84,159.85Z"></path><path fill="#e4e5f9" d="M177.59,171c-.19,5.24-15.79,8.67-29,6.65-12.82-2-19.62-10.65-18.82-21.42s10-17.1,23.89-14C168.86,145.52,178,158.55,177.59,171Z"></path><path fill="#dda6ae" d="M177.15,165.42s.36,5.87-3.11,9.53c0,0,4-.88,4.39-3.45S177.15,165.42,177.15,165.42Z"></path><ellipse fill="#6a518a" cx="156.41" cy="160.89" rx="13.66" ry="13.61" transform="matrix(0.85, -0.52, 0.52, 0.85, -60.95, 105.19)"></ellipse><ellipse fill="#76719d" cx="156.41" cy="160.89" rx="12.86" ry="12.81" transform="translate(-60.91 105.04) rotate(-31.4)"></ellipse><ellipse fill="#724a60" cx="156.41" cy="160.89" rx="8.34" ry="8.31" transform="translate(-60.95 105.2) rotate(-31.44)" class="cls-multipy canChange" style="fill:null"></ellipse><path fill="#fff" d="M146.22,158.72c.88.77-3.19,1-6.22-.23-2.71-1.07-4-2.81-3.76-3.12S142.77,155.65,146.22,158.72Z"></path><path fill="#fff" d="M148.53,159.49c1.15-.39,2.5.2,2.55.81s-1.38,1.38-2,1.13S147.89,159.71,148.53,159.49Z"></path><path fill="#d177b8" opacity="0.6" d="M176.43,162.53S157.8,141,129.89,154.75l.38-1.85s1.43-8.08,21-8.08S176.43,162.53,176.43,162.53Z" class="cls-multipy"></path><path fill="#0b0000" d="M175.41,159.76s-6.78-11.32-22.69-12.5-22.45,5.64-22.45,5.64-4.83-2.61-4.18-3.67S158.41,122.91,175.41,159.76Z"></path><path fill="#852442" d="M174.07,233.15a102.58,102.58,0,0,0,11.61-2c18.1-3.93,28.37-6.26,34.85-8.87a34.29,34.29,0,0,0,11.24-7.94s-9.29,11.85-24.67,16C188.54,235.33,174.07,233.15,174.07,233.15Z"></path><path fill="#742637" d="M174.07,233.15a102.58,102.58,0,0,0,11.61-2c18.1-3.93,28.37-6.26,34.85-8.87a34.29,34.29,0,0,0,11.24-7.94s-9.29,11.85-24.67,16C188.54,235.33,174.07,233.15,174.07,233.15Z"></path><path fill="#ba7070" d="M169.81,233s7.84,8.68,17.38,9.57,25.22-.88,33.6-8.24,10.59-18.38,10.59-18.38-8.47,9.74-25.56,14.77S169.81,233,169.81,233Z" class="canChange" style="fill:null"></path><path fill="#430128" d="M166.55,232.41s17.26,3.57,35.14,0S232,215.3,232,215.3l1.42.6-1.61-5.31v3.76a59.45,59.45,0,0,1-30.56,17.19C184.83,235.17,166.55,232.41,166.55,232.41Z"></path><path fill="#ffd9d9" d="M215.91,237.58l-4.82-7.32s10.06-4.24,15-8.6l3.15.63S225.27,233.05,215.91,237.58Z" class="cls-softlight"></path><path fill="#b86e51" opacity="0.5" d="M215.91,237.58s11-12.36,13.33-15.29C229.24,222.29,227.14,231.83,215.91,237.58Z" class="cls-softlight"></path><path fill="#24212b" d="M243.14,294.88a64.22,64.22,0,0,1-11,10.77H169.51c-.82-.58-1.66-1.15-2.53-1.67-3.31-3.18-6.82-6.14-10.31-9.12l-.61-.55c-.14-.13-.28-.27-.41-.41s-.49-.51-.72-.77A112.79,112.79,0,0,1,152.6,266a114.92,114.92,0,0,1,1.07-12.54c-.09.65,1.69,2.67,2.07,3.24.72,1.09,1.47,2.16,2.24,3.21a78.54,78.54,0,0,0,10.37,11,73.86,73.86,0,0,0,12.28,9.35c.75.45,2.72,2,3.59,1.94,0,0,9.59-.91.81-10.43,0,0,2.52-.11,5.66-.22s6.94-.23,9.5-.23h.32c5.1,0,15.16.45,15.16.45-8.78,9.53.81,10.43.81,10.43,1.1.1,2.45-1.14,3.32-1.68,1.24-.77,2.48-1.56,3.7-2.38a68,68,0,0,0,6.69-5,139.47,139.47,0,0,0,10.94-10.81,37,37,0,0,0,3.22-4.68c.24-.35,1.7-2,1.6-2.41a45.47,45.47,0,0,1,1.45,9.76C247.83,274.36,246,284.87,243.14,294.88Z" class="canChange" style="fill:null"></path><path fill="#151319" d="M179.79,291.7a45.47,45.47,0,0,0,6.33,13.95H162.45a39.88,39.88,0,0,1-6.39-11.34c-.14-.42-.27-.84-.38-1.26,0,.28,0,.57,0,.85,0,.75,0,1.49,0,2.24-.25-1-.49-2-.7-3A112.79,112.79,0,0,1,152.6,266c.88,4,4.88,21,11.84,29.57,0,0-1.8-11.3,2-14.48,0,0,3.33,17.29,11.52,24.46C177.9,305.18,175,295.48,179.79,291.7Z" class="canChange" style="fill:null"></path><path fill="#151319" d="M193.1,299.13s2.41,3.21,5.27,6.52h-5.44C192.42,303,192.23,300.32,193.1,299.13Z" class="canChange" style="fill:null"></path><path fill="#151319" d="M217.92,294s4.11,7,3.82,11.64H214A20.28,20.28,0,0,0,217.92,294Z" class="canChange" style="fill:null"></path><path fill="#151319" d="M243.14,294.88c-.54,1.9-1.1,3.79-1.69,5.63-.78,1.36-1.93,3.18-3.33,5.14H222.74c3.09-4.51,9.2-14.41,9-21.88,0,0,5.53,4.62,5.11,13.57,0,0,12-24.83,8.7-34.3a21.32,21.32,0,0,1,1.84,1.87C247.83,274.36,246,284.87,243.14,294.88Z" class="canChange" style="fill:null"></path><path fill="#e7e4f0" d="M393.17,400H6.83s1.81-8,3.33-15.08c-.11-1-.22-2-.34-3.06l1,.13c.6-2.88,1.1-5.34,1.3-6.63.12-.74,3.3-2.47,8.58-4.88,3.91-1.79,9-3.94,14.82-6.33L38.25,363c12.82-5.21,28.8-11.38,44.23-17.27l.19-.07.64-.24,1.29-.5,2.64-1,5.41-2.05,2.29-.87,1.12-.43,1.47-.56,5.31-2,6.82-2.59,6.64-2.52,5.13-1.95.4-.88.67-1.49h0c4.23-.88,8-1.68,11.22-2.37,2.13-.46,4-.87,5.59-1.24l2.74-.65c.92-.23,1.64-.42,2.16-.58a5.13,5.13,0,0,0,2.09-1.33l2.77,1.7,10.82,6.64,4.86,3,2.48,1.52,1.59,1L170,337l1.55.95,4.33,2.65.12.08,1.15.71h0l1.28.78,9.07,5.56,9.19,5.64,1.58,1,1,.6.71.44,1.74-1,5.31-3.1,3.6-2.1,4.48-2.62,6-3.52.56-.33,3.17-1.86,3.65-2.14.07,0,3-1.76,2.29-1.34h0l20.89-12.21a4.22,4.22,0,0,0,.95.43c.84.26,2.2.6,4,1l.95.22c1.58.36,3.44.77,5.55,1.22l6.29,1.34.44,1.28.86.33,9.45,3.61,3,1.12h0L299,338.73h0l3.44,1.3,2.34.89,3,1.12,1,.38,1.46.55,5.54,2.1,2.43.93,4.28,1.64,2.44.93c9.91,3.8,19.82,7.64,28.74,11.19,6.26,2.49,12,4.83,17,6.92s9,3.86,11.94,5.31c3.33,1.62,5.27,2.79,5.36,3.37.36,2.24,1.58,7.95,2.75,13.32.05.25.11.49.16.74h0C392.05,395,393.17,400,393.17,400Z"></path><path fill="#615b73" d="M273.28,329.08s16.41,35.15-5.78,70.92l107-.33s0-24.36,13.44-24.77C387.92,374.9,289.66,328.71,273.28,329.08Z" class="canChange" style="fill:null"></path><path fill="#615b73" d="M128.49,329.08s-16.41,35.15,5.78,70.92l-107-.33s0-24.36-13.43-24.77C13.85,374.9,112.11,328.71,128.49,329.08Z" class="canChange" style="fill:null"></path><path fill="#d077b7" opacity="0.32" d="M130.09,339.36l-1-1.08-4.68-5.46-.22-.24,1-1.85-.55-.09-.44-.05a7,7,0,0,1-2.32-.63l-.46,1-5.13,1.95-6.64,2.52L102.84,338l-5.31,2-1.47.56-1.12.43-2.29.87-5.41,2.05-2.64,1-1.29.5-.64.24-.19.07C67.05,351.64,51.07,357.81,38.25,363l-2.77,1.13c-5.83,2.39-10.91,4.54-14.82,6.33-5.28,2.41-8.46,4.14-8.58,4.88-.2,1.29-.7,3.75-1.3,6.63l-1-.13c.12,1,.23,2,.34,3.06C8.64,392,6.83,400,6.83,400h36.3c.12-2.39.27-5.14.45-8.32.07-1.35.15-2.77.23-4.28a10.4,10.4,0,0,1,.18-1.46c1.38-7.76,10.39-14.44,22.57-20a165.05,165.05,0,0,1,17.84-6.84C94,356,104,353.35,113.29,351.25c8.82-2,16.89-3.55,23-4.64l-4-4.64Z" class="cls-multipy"></path><path fill="#d077b7" opacity="0.32" d="M168.9,304.92c-6.13,2.42-13.09,6.66-17.43,14.06a28.32,28.32,0,0,0-2.39,5.15c-1.9,5.44-2.52,12.2-1,20.58,0,0-1.43.2-4,.6-2,.32-4.61.75-7.75,1.3l-4-4.64-2.23-2.61-1-1.08-4.68-5.46-.22-.24,2.67-5.16,1.31-2.56.37-.72,12.68-24.54.08-.13,4.59-8.91,5.29,3.31,1.46.91Z" class="cls-multipy"></path><path fill="#d077b7" opacity="0.32" d="M393.17,400H341.36a24.51,24.51,0,0,0-1.53-8c-3.2-8.8-11.08-17-20.65-24.24-3.64-2.74-7.52-5.34-11.48-7.78a240.32,240.32,0,0,0-27.4-14.29c-4.09-1.84-7.73-3.35-10.62-4.51-4.35-1.74-7-2.68-7-2.68h0a24.37,24.37,0,0,0-2.85-13.69c-4.57-8.67-13.69-15-21.72-19.14l11.69-8.9,8.15-6.19,10,23.62,4.65,13.39.44,1.28,1.35.52,9,3.42,3,1.12h0L299,338.73h0l3.44,1.3,2.34.89,3,1.12,1,.38,1.46.55,5.54,2.1,2.43.93,4.28,1.64,2.44.93c9.91,3.8,19.82,7.64,28.74,11.19,6.26,2.49,12,4.83,17,6.92s9,3.86,11.94,5.31c3.33,1.62,5.27,2.79,5.36,3.37.36,2.24,1.58,7.95,2.75,13.32.05.25.11.49.16.74h0C392.05,395,393.17,400,393.17,400Z" class="cls-multipy"></path><polygon fill="#a685ff" points="161.79 346.56 201.61 371.71 187.07 317.12 161.79 346.56"></polygon><polygon fill="#a685ff" points="238.44 346.46 205.77 371.71 217.59 317.08 238.44 346.46"></polygon><polygon fill="#73245f" points="251.58 356.86 226.9 366.2 207.62 373.5 193.62 368.75 177.96 363.44 158.91 356.97 151.85 354.58 158.14 344.42 163.94 335.08 165.12 333.18 172.58 337.13 190.25 346.46 199.66 351.43 200.54 351.9 213.91 346.13 244.49 332.95 251.58 356.86"></polygon><path fill="#d077b7" opacity="0.32" d="M199.76,385.59l-.6,1.56-.18.47-2.32,6.06L194.24,400H174.71c5-4.34,9.09-7.55,9.09-7.55-8.58-1.81-1.23-12.39-4.58-14.6S165.91,380,165.91,380l.16-4.67.54-15.76.21-6.28,3.84.53,3.4.47,4.13.57,5.57.77,3.86,7.22,2.51,4.7,3,5.55,4.8,9Z" class="cls-multipy"></path><polygon fill="#e7e4f0" points="274.09 329.61 269 336.83 268.37 337.73 268.02 338.21 265.67 341.55 263.02 345.31 263.02 345.32 255.7 355.69 254.44 357.46 238.48 380.07 235.43 362.97 234.47 357.57 234.24 356.22 233.67 353.07 233.22 350.49 232.5 346.46 229.02 339.62 217.6 317.08 217.59 317.07 217.6 317.07 234.53 304.15 236.39 302.73 248.07 293.81 256.21 287.61 266.26 311.22 271.2 322.81 271.31 323.07 272.72 326.4 273.82 328.99 274.09 329.61"></polygon><path fill="#73245f" d="M232.58,356.14s-2.22,4.32-5.68,10.06c-4.65,7.73-11.53,18.05-18.2,23.81-3.29,2.85-6.55,4.59-9.43,4.35a9.42,9.42,0,0,1-4.42-1.67,18.93,18.93,0,0,1-3.52-3.16c-6-6.69-10.83-18.79-13.37-26.09-1.25-3.65-2-6.11-2-6.11a36.41,36.41,0,0,1,14.24-10.87,30.92,30.92,0,0,1,12.51-2.22,39.63,39.63,0,0,1,11.15,1.89A59.53,59.53,0,0,1,232.58,356.14Z"></path><path fill="#73245f" d="M217.86,400H183.93a120.86,120.86,0,0,1,7.39-10.45h0c1.82-2.29,3.4-4.08,4.58-5.37.89-1,1.57-1.64,2-2.05l.47-.44A67.24,67.24,0,0,1,208.7,390,102.9,102.9,0,0,1,217.86,400Z"></path><path fill="#d077b7" opacity="0.32" d="M193.1,373.12c-.22,4.16.52,8.06,2.81,11.05a12.46,12.46,0,0,0,3.25,3l.19.12-.37.35a32.44,32.44,0,0,0-4.13,5.07A28.76,28.76,0,0,0,191.3,400h-7.37a120.86,120.86,0,0,1,7.39-10.45h0c-6-6.7-10.83-18.8-13.37-26.1l-8.72-3-2.63-.89-7.7-2.61-.77-12.56,5.79-9.33,4.9,1.15,1.51.36,2.24.53,4.1,2.17,13.57,7.16a32,32,0,0,1,4.27-1.37,31.55,31.55,0,0,1,8.24-.85l.7.16s-1.75,2.81-3.8,7c-.44.91-.9,1.88-1.36,2.9q-.41.92-.81,1.89A64.85,64.85,0,0,0,194,366.9c-.14.62-.27,1.24-.38,1.85A31.67,31.67,0,0,0,193.1,373.12Z" class="cls-multipy"></path><path fill="#e7e4f0" d="M190.28,317.12l-2.94,4.76h0l-10.9,17.8h0l-4.2,6.85-1.14,5.27-.24,1.1v0l-.22,1-.8,3.71-.11.54-.12.58-.44,2h0l-4.08,19.14-.05.22-.13-.14-1.09-1.27L156,369.67l-.2-.22a1.8,1.8,0,0,1-.2-.24l-10.08-11.67-.75-.87-.74-.87-10.36-12-4-4.64-2.24-2.6-1-1.08L121.79,330l-.22-.23,2.67-5.17,1.3-2.56.37-.72,12.65-24.56.08-.13,4.58-8.91,5.29,3.3L150,292l16.22,10.12,2.92,1.82,7.21,4.51Z"></path><path fill="#d077b7" opacity="0.32" d="M140.17,331a35.93,35.93,0,0,0,1.25,11.55,61.65,61.65,0,0,0,5.32,13.25c.16.3.31.58.47.86s.31.58.47.86a88.21,88.21,0,0,0,7.92,11.73l-10.08-11.67-.75-.87-.74-.87-10.36-12-4-4.64-2.24-2.6-1-1.08L121.79,330l-.22-.23,2.67-5.17,1.3-2.56.37-.72,12.65-24.56.08-.13,4.58-8.91,5.29,3.3L150,292l16.22,10.12,2.92,1.82c-3,1.33-6.24,2.9-9.48,4.75a63.59,63.59,0,0,0-10.85,7.51c-.45.39-.89.8-1.32,1.21-.61.58-1.19,1.16-1.72,1.76l-.09.1a25.84,25.84,0,0,0-1.65,2,17.79,17.79,0,0,0-3.79,9.09c0,.19,0,.38-.05.58Z" class="cls-multipy"></path><path fill="#d177b8" opacity="0.6" d="M219.8,201.53s-.08,3.21-1.07,3.83-2.48-1.38-4.6-1.18a124.17,124.17,0,0,1-14.82.57c-10.34,0-12.44,0-13.95-.44-2.09-.62-3.11,1.67-4.09,1.05s-1.07-3.83-1.07-3.83l0,4.27s1.58,2,8.18,10.5c5.31,6.85,17.48,6.59,23.13-1.36s8.33-9.14,8.33-9.14Z" class="canChange cls-multipy" style="fill:null"></path><path fill="#dd93f4" opacity="0.6" d="M215.53,191.42s-.82-1.7-1.8-1-1.6,14.8-1.6,14.8-1.44-15.1,0-19A14.13,14.13,0,0,1,215.53,191.42Z" class="canChange cls-multipy" style="fill:null"></path><path fill="#dd93f4" opacity="0.6" d="M184.32,191.42s.81-1.7,1.8-1,1.6,14.8,1.6,14.8,1.43-15.1,0-19A14.13,14.13,0,0,0,184.32,191.42Z" class="canChange cls-multipy" style="fill:null"></path><path fill="#401a35" opacity="0.6" d="M210.52,211.07s3.17-4.53,4.41-5.27,3.69.59,3.69.59a10.81,10.81,0,0,0-2.71,1.8C214.6,209.39,212,211.25,210.52,211.07Z" class="cls-multipy"></path><path fill="#401a35" opacity="0.6" d="M182.19,206.91s1.17-2.29,2.92-1.73,4.11,5.9,4.11,5.9-2.52-1.16-3.94-2S182.19,206.91,182.19,206.91Z" class="cls-multipy"></path></svg>